# xmcd CD database file
#
# Track frame offsets:
#	150
#	15305
#	28320
#	43962
#	59067
#	73072
#	85877
#	94782
#	107255
#	121372
#	141377
#	155327
#
# Disc length: 2298 seconds
#
# Revision: 0
# Processed by: cddbd v1.5.1PL2 Copyright (c) Steve Scherf et al.
# Submitted via: CDex 1.51
#
DISCID=a508f80c
DTITLE=Orlando Dias - Orlando Dias
DYEAR=1970
DGENRE=Musica Popular Brasil
TTITLE0=1.Com Pedra na Mao
TTITLE1=2.A Casa e Sua
TTITLE2=3. Tu nao me Queres
TTITLE3=4. Sem Carinho e Sem Amor
TTITLE4=5. Voce nao Vale Nada
TTITLE5=6. Heroina
TTITLE6=7. O Telegrama
TTITLE7=8. Foi Amor Demais
TTITLE8=9.Vida da Minha Vida
TTITLE9=10.Nossa Mae (Mae amor eterno)
TTITLE10=11. Venal Criatura
TTITLE11=12. Imunizar
EXTD=YEAR: 1970
EXTT0=
EXTT1=
EXTT2=
EXTT3=
EXTT4=
EXTT5=
EXTT6=
EXTT7=
EXTT8=
EXTT9=
EXTT10=
EXTT11=
PLAYORDER=
